<?xml version="1.0" encoding="utf-8"?>
<!-- Generator: Adobe Illustrator 19.2.1, SVG Export Plug-In . SVG Version: 6.00 Build 0)  -->
<svg version="1.1" id="Layer_1" xmlns="http://www.w3.org/2000/svg" xmlns:xlink="http://www.w3.org/1999/xlink" x="0px" y="0px"
	 viewBox="0 0 300 300" style="enable-background:new 0 0 300 300;" xml:space="preserve">
<style type="text/css">
	.st0{fill:#048A92;stroke:#6D6E71;stroke-width:0.4;}
</style>
<g id="XMLID_22_">
	<g>
		<path class="st0" d="M204.2,100.7v81.8c0,3-1.8,5.5-4.1,5.5h-42.5h-15.3H99.9c-2.3,0-4.1-2.5-4.1-5.5v-81.8c0-3,1.8-5.5,4.1-5.5
			h100.3C202.4,95.2,204.2,97.7,204.2,100.7z M197.1,175.8v-68.4c0-2.5-1.6-4.6-3.6-4.6h-87c-2,0-3.6,2.1-3.6,4.6v68.4
			c0,2.5,1.6,4.6,3.6,4.6h87C195.5,180.4,197.1,178.4,197.1,175.8z"/>
		<polygon class="st0" points="180.7,202.4 180.7,204.8 153.3,204.8 146.7,204.8 119.3,204.8 119.3,202.4 		"/>
		<path class="st0" d="M180.4,200.4h-60.7c1.5-4.4,8-4.7,8-4.7s4,0,9.3,0c3.4,0,4.6-3.1,5.1-5.4h15.8c0.5,2.3,1.7,5.4,5.1,5.4
			c5.3,0,9.3,0,9.3,0S178.9,196,180.4,200.4z"/>
		<path class="st0" d="M156.5,155c-1.9,0.7-4,1-6.2,1c-2.2,0-4.2-0.3-6.2-1c-7.8-2.6-13.4-9.9-13.4-18.5c0-10.8,8.7-19.5,19.5-19.5
			c10.8,0,19.5,8.7,19.5,19.5C169.8,145.1,164.2,152.4,156.5,155z M165.5,136.5c0-8.4-6.8-15.2-15.2-15.2c-8.4,0-15.2,6.8-15.2,15.2
			c0,8.4,6.8,15.2,15.2,15.2C158.7,151.6,165.5,144.8,165.5,136.5z"/>
		<path class="st0" d="M150.3,127.9c4.7,0,8.5,3.8,8.5,8.5c0,4.7-3.8,8.5-8.5,8.5c-4.7,0-8.5-3.8-8.5-8.5
			C141.8,131.8,145.6,127.9,150.3,127.9z M150.1,142l4-9.4l-3.8,3.8l-4.2-3.8L150.1,142z"/>
		<path class="st0" d="M156.5,155l-6.3,18.4l-6-18.4c1.9,0.7,4,1,6.2,1C152.4,156,154.5,155.6,156.5,155z"/>
	</g>
</g>
</svg>
