<?xml version="1.0" encoding="utf-8"?>
<!-- Generator: Adobe Illustrator 19.2.1, SVG Export Plug-In . SVG Version: 6.00 Build 0)  -->
<svg version="1.1" id="Layer_1" xmlns="http://www.w3.org/2000/svg" xmlns:xlink="http://www.w3.org/1999/xlink" x="0px" y="0px"
	 viewBox="0 0 300 300" style="enable-background:new 0 0 300 300;" xml:space="preserve">
<style type="text/css">
	.st0{fill:#038A92;stroke:#6D6E71;stroke-width:0.4;}
</style>
<g>
	<g id="XMLID_7_">
		<g>
			<path class="st0" d="M220.3,124.8c0,0,0,28.9,0,38c0,9-9.3,9.6-9.3,9.6s-1.6,0-4.4,0c0-7-5.7-12.7-12.7-12.7
				c-7,0-12.7,5.7-12.7,12.7c-12,0-26.3,0-40.2,0V118H216C216,118,220.3,117.5,220.3,124.8z M214.8,124.8c0.1-0.2,0.2-0.4,0.1-0.6
				c0-0.2-0.2-0.3-0.4-0.3c-0.1,0-0.3,0-0.4,0.1c-0.1,0.1-0.3,0.2-0.4,0.3c-0.1,0.1-0.3,0.3-0.4,0.4c-0.1,0.1-0.3,0.3-0.5,0.5
				l-3.3,3.3l0.2-3.3c0-0.5,0-0.9,0-1c0-0.2-0.2-0.3-0.4-0.3c-0.2,0-0.4,0.1-0.7,0.3c-0.2,0.2-0.4,0.4-0.6,0.7
				c-0.1,0.2-0.1,0.3-0.2,0.5c0,0.2-0.1,0.5-0.1,0.9l-0.2,4.1l-1.8,3.5c-0.2,0.5-0.3,0.8-0.3,1c0,0.2,0.2,0.3,0.4,0.3
				c0.2,0,0.5-0.1,0.8-0.3c0.3-0.2,0.5-0.6,0.8-1l1.8-3.5l4.2-4.2c0.3-0.3,0.6-0.6,0.8-0.8C214.6,125.2,214.7,125,214.8,124.8z
				 M207,126c0.1-0.4,0.1-0.7,0-0.9c-0.1-0.3-0.2-0.5-0.4-0.6c-0.1-0.1-0.3-0.2-0.6-0.3c-0.2,0-0.5-0.1-0.9-0.1h-2.7
				c-0.4,0-0.7,0.1-0.9,0.3c-0.3,0.2-0.5,0.6-0.8,1l-4.4,8.4c-0.2,0.4-0.3,0.8-0.3,1c0,0.2,0.2,0.3,0.4,0.3c0.2,0,0.5-0.1,0.8-0.3
				c0.3-0.2,0.5-0.6,0.8-1l1.8-3.5h0.6c0.3,0,0.5,0.1,0.6,0.2c0.1,0.1,0.2,0.3,0.3,0.6c0,0.3,0,0.7,0,1.2l-0.1,1.5
				c0,0.3,0,0.6,0,0.8c0,0.2,0,0.3,0.1,0.4c0.1,0.1,0.2,0.2,0.4,0.2c0.2,0,0.3,0,0.5-0.1c0.2-0.1,0.3-0.2,0.5-0.3
				c0.1-0.1,0.2-0.3,0.3-0.4c0.1-0.1,0.1-0.4,0.2-0.8c0.1-0.4,0.1-0.8,0.2-1.2c0-0.5,0-0.9,0-1.3c-0.1-0.4-0.2-0.7-0.4-0.9
				c0.8-0.2,1.5-0.5,2.1-1c0.6-0.5,1.1-1.1,1.5-1.9C206.7,126.7,206.9,126.3,207,126z M199.6,125c0.1-0.3,0.2-0.5,0.1-0.6
				c0-0.2-0.2-0.2-0.5-0.2h-4.4c-0.2,0-0.5,0-0.6,0.1c-0.2,0.1-0.4,0.2-0.6,0.4c-0.2,0.2-0.3,0.5-0.5,0.8l-4.3,8.2
				c-0.2,0.5-0.4,0.8-0.3,1c0,0.2,0.2,0.3,0.6,0.3h4.5c0.3,0,0.5-0.1,0.7-0.2c0.2-0.2,0.4-0.4,0.5-0.6c0.1-0.3,0.2-0.5,0.1-0.6
				c0-0.2-0.2-0.2-0.5-0.2h-3.9l1.6-3.1h3.4c0.3,0,0.5-0.1,0.7-0.2c0.2-0.2,0.4-0.4,0.5-0.6c0.1-0.2,0.2-0.4,0.1-0.6
				c0-0.2-0.2-0.2-0.4-0.2h-3.4l1.4-2.7h3.7c0.3,0,0.5-0.1,0.7-0.2C199.3,125.4,199.4,125.2,199.6,125z M192.3,124.4
				c0-0.2,0-0.3-0.1-0.4c-0.1-0.1-0.2-0.1-0.3-0.1c-0.2,0-0.4,0.1-0.6,0.2c-0.2,0.1-0.3,0.3-0.5,0.4c-0.1,0.1-0.3,0.4-0.6,0.8
				l-5.7,7.4l2-7.3c0.1-0.5,0.2-0.9,0.2-1.1c0-0.2-0.1-0.3-0.4-0.3c-0.2,0-0.5,0.1-0.7,0.3c-0.3,0.2-0.5,0.4-0.6,0.7
				c-0.1,0.1-0.1,0.2-0.2,0.4c-0.1,0.1-0.1,0.3-0.1,0.4c0,0.1-0.1,0.3-0.1,0.4l-1.8,7.1c-0.1,0.3-0.1,0.5-0.2,0.8
				c-0.1,0.2-0.1,0.5-0.1,0.7c0,0.2,0,0.3,0.1,0.5c0.1,0.1,0.3,0.2,0.5,0.2c0.2,0,0.4-0.1,0.7-0.2c0.2-0.1,0.4-0.3,0.6-0.5
				c0.2-0.2,0.4-0.4,0.6-0.6c0.2-0.2,0.4-0.5,0.6-0.8l5.7-7.1c0.1-0.1,0.2-0.3,0.3-0.4c0.1-0.1,0.2-0.2,0.3-0.4
				c0.1-0.1,0.2-0.2,0.2-0.4C192.3,124.8,192.3,124.6,192.3,124.4z M183.6,125.3c0.2-0.5,0.3-0.8,0.3-1c0-0.2-0.2-0.3-0.4-0.3
				c-0.2,0-0.5,0.1-0.8,0.3c-0.3,0.2-0.5,0.6-0.8,1l-4.5,8.6c-0.2,0.4-0.3,0.8-0.3,1c0,0.2,0.2,0.3,0.4,0.3c0.2,0,0.5-0.1,0.8-0.3
				c0.3-0.2,0.5-0.6,0.8-1L183.6,125.3z M176.6,125.3c0.2-0.5,0.3-0.8,0.3-1c0-0.2-0.2-0.3-0.4-0.3c-0.2,0-0.5,0.1-0.8,0.3
				c-0.3,0.2-0.5,0.6-0.8,1l-4.4,8.4c-0.2,0.5-0.4,0.8-0.3,1c0,0.2,0.2,0.3,0.6,0.3h4c0.3,0,0.5-0.1,0.7-0.2
				c0.2-0.2,0.4-0.4,0.6-0.7c0.1-0.3,0.2-0.5,0.1-0.7c-0.1-0.2-0.2-0.3-0.5-0.3h-3.4L176.6,125.3z M173.7,125
				c0.1-0.3,0.2-0.5,0.1-0.6c0-0.2-0.2-0.2-0.5-0.2H169c-0.2,0-0.5,0-0.6,0.1c-0.2,0.1-0.4,0.2-0.6,0.4c-0.2,0.2-0.3,0.5-0.5,0.8
				l-4.3,8.2c-0.2,0.5-0.4,0.8-0.3,1c0,0.2,0.2,0.3,0.6,0.3h4.5c0.3,0,0.5-0.1,0.7-0.2c0.2-0.2,0.4-0.4,0.5-0.6
				c0.1-0.3,0.2-0.5,0.1-0.6c0-0.2-0.2-0.2-0.5-0.2h-3.9l1.6-3.1h3.4c0.3,0,0.5-0.1,0.7-0.2c0.2-0.2,0.4-0.4,0.5-0.6
				c0.1-0.2,0.2-0.4,0.1-0.6c0-0.2-0.2-0.2-0.4-0.2h-3.4l1.4-2.7h3.7c0.3,0,0.5-0.1,0.7-0.2C173.3,125.4,173.5,125.2,173.7,125z
				 M163.6,129.5c1-2,1.4-3.5,1-4.4c-0.1-0.4-0.4-0.6-0.7-0.8c-0.3-0.1-0.8-0.2-1.3-0.2h-2.2c-0.4,0-0.7,0.1-0.9,0.3
				c-0.3,0.2-0.5,0.6-0.8,1l-4.2,8c-0.2,0.4-0.3,0.6-0.4,0.9c-0.1,0.2-0.1,0.4,0,0.5c0.1,0.1,0.3,0.2,0.6,0.2h2.2
				c0.4,0,0.7,0,1.1-0.1c0.3-0.1,0.7-0.2,1-0.3c0.3-0.2,0.7-0.4,1-0.6c0.5-0.3,0.9-0.7,1.3-1.2c0.4-0.4,0.8-0.9,1.2-1.5
				C162.9,130.8,163.3,130.2,163.6,129.5z"/>
			<path class="st0" d="M204.8,125.9c0.1,0.1,0.2,0.3,0.2,0.5c0,0.2-0.1,0.5-0.2,0.8c-0.2,0.4-0.4,0.7-0.7,0.9
				c-0.3,0.2-0.5,0.4-0.9,0.5c-0.3,0.1-0.7,0.1-1.1,0.1h-1.5l1.6-3h1.5C204.3,125.8,204.7,125.8,204.8,125.9z"/>
			<path class="st0" d="M203.5,172.3c-1.6,0-3.5,0-5.6,0c0-2.3-1.8-4.1-4.1-4.1c-2.3,0-4.1,1.8-4.1,4.1c-1.8,0-3.6,0-5.6,0
				c0-5.3,4.3-9.7,9.7-9.7C199.2,162.6,203.5,166.9,203.5,172.3z"/>
			<path class="st0" d="M197.9,172.3c2.1,0,3.9,0,5.6,0c0,5.4-4.3,9.7-9.7,9.7c-5.3,0-9.7-4.3-9.7-9.7c1.9,0,3.8,0,5.6,0
				c0,2.3,1.8,4.1,4.1,4.1C196.1,176.4,197.9,174.5,197.9,172.3z"/>
			<path class="st0" d="M162.5,126.1c0.3,0.1,0.4,0.5,0.4,1c0,0.5-0.3,1.3-0.9,2.4c-0.8,1.5-1.6,2.6-2.5,3.2
				c-0.2,0.1-0.4,0.3-0.6,0.3c-0.2,0.1-0.4,0.1-0.6,0.1c-0.2,0-0.4,0-0.7,0h-1.3l3.9-7.4h1.1C161.8,125.9,162.2,125.9,162.5,126.1z"
				/>
			<path class="st0" d="M139.4,118v54.2c-5.3,0-10.6,0-15.6,0c0-7-5.7-12.7-12.7-12.7c-7,0-12.7,5.7-12.7,12.7c-7.4,0-12.4,0-13.4,0
				c-5.3,0-5.3-4.9-5.3-4.9s0-11.4,0-16.6c0-5.2,15.8-8.2,15.8-8.2s1.8-1.8,11.8-13.2c10-11.4,18.8-11.4,18.9-11.4H139.4z
				 M136.3,138.4V125c0,0-4.1,0-13.9,0c-9.8,0-19.6,16.8-19.6,16.8s26.3,0,30,0C136.3,141.8,136.3,138.4,136.3,138.4z"/>
			<path class="st0" d="M120.8,172.3c-1.9,0-3.8,0-5.6,0c0-2.3-1.8-4.1-4.1-4.1c-2.3,0-4.1,1.8-4.1,4.1c-2,0-3.8,0-5.6,0
				c0-5.3,4.3-9.7,9.7-9.7C116.4,162.6,120.8,166.9,120.8,172.3z"/>
			<path class="st0" d="M115.2,172.3c1.8,0,3.7,0,5.6,0c0,5.4-4.3,9.7-9.7,9.7c-5.3,0-9.7-4.3-9.7-9.7c1.8,0,3.6,0,5.6,0
				c0,2.3,1.8,4.1,4.1,4.1C113.4,176.4,115.2,174.5,115.2,172.3z"/>
		</g>
	</g>
</g>
</svg>
