<?xml version="1.0" encoding="utf-8"?>
<!-- Generator: Adobe Illustrator 19.2.1, SVG Export Plug-In . SVG Version: 6.00 Build 0)  -->
<svg version="1.1" id="Layer_1" xmlns="http://www.w3.org/2000/svg" xmlns:xlink="http://www.w3.org/1999/xlink" x="0px" y="0px"
	 viewBox="0 0 300 300" style="enable-background:new 0 0 300 300;" xml:space="preserve">
<style type="text/css">
	.st0{fill:#038A92;stroke:#6D6E71;stroke-width:0.4;}
</style>
<g id="XMLID_1_">
	<g>
		<path class="st0" d="M213.1,108.6v70l-61.7,30.4v-81.5L213.1,108.6z M208.7,172v-54.3l-51.2,17.9v60.9L208.7,172z"/>
		<polygon class="st0" points="208.6,106.3 149.9,124.3 91.3,106.3 149.9,90.9 		"/>
		<path class="st0" d="M148.6,127.6v81.5l-61.7-30.4v-70L148.6,127.6z M142.4,196.4v-60.9l-51.2-17.9V172L142.4,196.4z"/>
		<polygon class="st0" points="106.3,161.5 100.2,165.5 96.1,157.6 98.6,158.8 98.6,149.7 102.9,152 102.9,160.4 		"/>
		<polygon class="st0" points="105.9,170.5 105.9,174.3 95.1,169.3 95.1,165.5 		"/>
	</g>
</g>
</svg>
